# xmcd
#
# Track frame offsets:
#	150
#	19137
#	37363
#	55190
#	73583
#	89805
#	106809
#	123875
#	141102
#	156298
#
# Disc length: 2318 seconds
#
# Revision: 1
# Processed by: cddbd v1.5.2PL0 Copyright (c) Steve Scherf et al.
# Submitted via: EasyCDDAExtractor 16.0.9.1
#
DISCID=8d090c0a
DTITLE=Mỹ Tâm - To The Beat
DYEAR=2008
DGENRE=Blues
TTITLE0=Quên Đi Ngày Yêu Dấu
TTITLE1=Ngày Anh Ra Đi
TTITLE2=Nhớ Anh Thật Nhiều
TTITLE3=Vũ Điệu France Cho Anh
TTITLE4=Về Đi Anh
TTITLE5=Chỉ Tình Yêu Anh Mất
TTITLE6=Lạc Lối
TTITLE7=Mưa Khóc
TTITLE8=Tic Tac Toe
TTITLE9=Do it
EXTD=
EXTT0=
EXTT1=
EXTT2=
EXTT3=
EXTT4=
EXTT5=
EXTT6=
EXTT7=
EXTT8=
EXTT9=
PLAYORDER=
